<?xml version="1.0" encoding="UTF-8" standalone="no"?>
<!-- Created with Inkscape (http://www.inkscape.org/) -->

<svg
   width="1024"
   height="1024"
   viewBox="0 0 1024 1024"
   version="1.1"
   id="svg5"
   inkscape:version="1.2 (dc2aedaf03, 2022-05-15)"
   sodipodi:docname="hicolor-apps-headsetkontrol.svg"
   inkscape:export-filename="app-icon.png"
   inkscape:export-xdpi="96"
   inkscape:export-ydpi="96"
   xmlns:inkscape="http://www.inkscape.org/namespaces/inkscape"
   xmlns:sodipodi="http://sodipodi.sourceforge.net/DTD/sodipodi-0.dtd"
   xmlns="http://www.w3.org/2000/svg"
   xmlns:svg="http://www.w3.org/2000/svg">
  <sodipodi:namedview
     id="namedview7"
     pagecolor="#ffffff"
     bordercolor="#000000"
     borderopacity="0.25"
     inkscape:showpageshadow="false"
     inkscape:pageopacity="0.0"
     inkscape:pagecheckerboard="true"
     inkscape:deskcolor="#d1d1d1"
     inkscape:document-units="px"
     showgrid="false"
     showborder="true"
     borderlayer="true"
     inkscape:zoom="0.70710678"
     inkscape:cx="323.85491"
     inkscape:cy="556.49304"
     inkscape:window-width="1920"
     inkscape:window-height="1004"
     inkscape:window-x="0"
     inkscape:window-y="0"
     inkscape:window-maximized="1"
     inkscape:current-layer="layer1">
    <sodipodi:guide
       position="0,1024"
       orientation="0,1024"
       id="guide9401"
       inkscape:locked="false" />
    <sodipodi:guide
       position="1024,1024"
       orientation="1024,0"
       id="guide9403"
       inkscape:locked="false" />
    <sodipodi:guide
       position="1024,0"
       orientation="0,-1024"
       id="guide9405"
       inkscape:locked="false" />
    <sodipodi:guide
       position="0,0"
       orientation="-1024,0"
       id="guide9407"
       inkscape:locked="false" />
  </sodipodi:namedview>
  <defs
     id="defs2">
    <inkscape:path-effect
       effect="mirror_symmetry"
       start_point="512.05279,104.2793"
       end_point="512.05279,959.41579"
       center_point="512.05279,531.84754"
       id="path-effect3893"
       is_visible="true"
       lpeversion="1.2"
       lpesatellites=""
       mode="free"
       discard_orig_path="false"
       fuse_paths="false"
       oposite_fuse="false"
       split_items="false"
       split_open="false"
       link_styles="false" />
    <inkscape:path-effect
       effect="bspline"
       id="path-effect4508"
       is_visible="true"
       lpeversion="1"
       weight="33.333333"
       steps="2"
       helper_size="0"
       apply_no_weight="true"
       apply_with_weight="true"
       only_selected="false" />
    <inkscape:path-effect
       effect="mirror_symmetry"
       start_point="512.05273,104.2793"
       end_point="512.05273,547.89843"
       center_point="512.05273,326.08886"
       id="path-effect985"
       is_visible="true"
       lpeversion="1.2"
       lpesatellites=""
       mode="vertical"
       discard_orig_path="false"
       fuse_paths="true"
       oposite_fuse="false"
       split_items="false"
       split_open="false"
       link_styles="false" />
    <inkscape:path-effect
       effect="mirror_symmetry"
       start_point="284.44444,0"
       end_point="284.44444,568.88889"
       center_point="284.44444,284.44444"
       id="path-effect6033"
       is_visible="true"
       lpeversion="1.2"
       lpesatellites=""
       mode="vertical"
       discard_orig_path="false"
       fuse_paths="false"
       oposite_fuse="false"
       split_items="false"
       split_open="false"
       link_styles="false" />
    <inkscape:path-effect
       effect="mirror_symmetry"
       start_point="195.12783,72.359174"
       end_point="195.12783,497.24204"
       center_point="195.12783,284.80061"
       id="path-effect4419"
       is_visible="true"
       lpeversion="1.2"
       lpesatellites=""
       mode="vertical"
       discard_orig_path="false"
       fuse_paths="false"
       oposite_fuse="false"
       split_items="false"
       split_open="false"
       link_styles="false" />
    <inkscape:path-effect
       effect="fillet_chamfer"
       id="path-effect4415"
       is_visible="true"
       lpeversion="1"
       nodesatellites_param="F,0,0,1,0,20,0,1 @ F,0,0,1,0,20,0,1 @ F,0,0,1,0,20,0,1 @ F,0,0,1,0,20,0,1"
       unit="px"
       method="auto"
       mode="F"
       radius="20"
       chamfer_steps="1"
       flexible="false"
       use_knot_distance="true"
       apply_no_radius="true"
       apply_with_radius="true"
       only_selected="false"
       hide_knots="false" />
    <inkscape:path-effect
       effect="mirror_symmetry"
       start_point="195.12783,72.359174"
       end_point="195.12783,497.24204"
       center_point="195.12783,284.80061"
       id="path-effect4368"
       is_visible="true"
       lpeversion="1.2"
       lpesatellites=""
       mode="vertical"
       discard_orig_path="false"
       fuse_paths="false"
       oposite_fuse="false"
       split_items="false"
       split_open="false"
       link_styles="false" />
    <inkscape:path-effect
       effect="fillet_chamfer"
       id="path-effect4364"
       is_visible="true"
       lpeversion="1"
       nodesatellites_param="F,0,0,1,0,20,0,1 @ F,0,0,1,0,20,0,1 @ F,0,0,1,0,20,0,1 @ F,0,0,1,0,20,0,1"
       unit="px"
       method="auto"
       mode="F"
       radius="20"
       chamfer_steps="1"
       flexible="false"
       use_knot_distance="true"
       apply_no_radius="true"
       apply_with_radius="true"
       only_selected="false"
       hide_knots="false" />
    <inkscape:path-effect
       effect="mirror_symmetry"
       start_point="397.37295,-34.654214"
       end_point="397.37295,605.42752"
       center_point="397.37295,285.38666"
       id="path-effect2828"
       is_visible="true"
       lpeversion="1.2"
       lpesatellites=""
       mode="vertical"
       discard_orig_path="false"
       fuse_paths="false"
       oposite_fuse="false"
       split_items="false"
       split_open="false"
       link_styles="false" />
    <inkscape:path-effect
       effect="mirror_symmetry"
       start_point="261.75178,48.429776"
       end_point="261.75178,543.1955"
       center_point="269.4825,276.00268"
       id="path-effect522"
       is_visible="false"
       lpeversion="1.2"
       lpesatellites=""
       mode="vertical"
       discard_orig_path="false"
       fuse_paths="true"
       oposite_fuse="false"
       split_items="false"
       split_open="false"
       link_styles="false" />
    <inkscape:path-effect
       effect="bend_path"
       id="path-effect520"
       is_visible="true"
       lpeversion="1"
       bendpath="m 104.36711,312.78844 c -0.2357,-86.5095 16.84329,-123.68255 44.033,-150.87226 35.22823,-35.22823 74.80663,-48.35823 113.67235,-48.35823"
       prop_scale="0.15"
       scale_y_rel="false"
       vertical="false"
       hide_knot="false"
       bendpath-nodetypes="csc" />
    <inkscape:path-effect
       effect="bspline"
       id="path-effect517"
       is_visible="true"
       lpeversion="1"
       weight="33.333333"
       steps="2"
       helper_size="0"
       apply_no_weight="true"
       apply_with_weight="true"
       only_selected="false" />
    <inkscape:path-effect
       effect="bend_path"
       id="path-effect500"
       is_visible="true"
       lpeversion="1"
       bendpath="M 102.53048,331.6564 V 97.580736 H 256"
       prop_scale="0.35"
       scale_y_rel="false"
       vertical="false"
       hide_knot="false" />
    <inkscape:path-effect
       effect="bspline"
       id="path-effect430"
       is_visible="true"
       lpeversion="1"
       weight="33.333333"
       steps="2"
       helper_size="0"
       apply_no_weight="true"
       apply_with_weight="true"
       only_selected="false" />
    <inkscape:path-effect
       effect="bspline"
       id="path-effect424"
       is_visible="true"
       lpeversion="1"
       weight="33.333333"
       steps="2"
       helper_size="0"
       apply_no_weight="true"
       apply_with_weight="true"
       only_selected="false" />
    <inkscape:path-effect
       effect="mirror_symmetry"
       start_point="217.65154,71.772519"
       end_point="217.65154,543.86459"
       center_point="217.65154,307.81856"
       id="path-effect317"
       is_visible="true"
       lpeversion="1.2"
       lpesatellites=""
       mode="vertical"
       discard_orig_path="false"
       fuse_paths="false"
       oposite_fuse="false"
       split_items="false"
       split_open="false"
       link_styles="false" />
    <inkscape:path-effect
       effect="mirror_symmetry"
       start_point="146.3711,294.1564"
       end_point="146.3711,451.13411"
       center_point="146.3711,372.64526"
       id="path-effect313"
       is_visible="true"
       lpeversion="1.2"
       lpesatellites=""
       mode="free"
       discard_orig_path="false"
       fuse_paths="false"
       oposite_fuse="false"
       split_items="false"
       split_open="false"
       link_styles="false" />
    <inkscape:path-effect
       effect="fillet_chamfer"
       id="path-effect151"
       is_visible="true"
       lpeversion="1"
       nodesatellites_param="F,0,0,1,0,20,0,1 @ F,0,0,1,0,20,0,1 @ F,0,0,1,0,20,0,1 @ F,0,0,1,0,20,0,1"
       unit="px"
       method="auto"
       mode="F"
       radius="20"
       chamfer_steps="1"
       flexible="false"
       use_knot_distance="true"
       apply_no_radius="true"
       apply_with_radius="true"
       only_selected="false"
       hide_knots="false" />
    <inkscape:path-effect
       effect="fillet_chamfer"
       id="path-effect151-7"
       is_visible="true"
       lpeversion="1"
       nodesatellites_param="F,0,0,1,0,30,0,1 @ F,0,0,1,0,30,0,1 @ F,0,0,1,0,30,0,1 @ F,0,0,1,0,30,0,1"
       unit="px"
       method="auto"
       mode="F"
       radius="30"
       chamfer_steps="1"
       flexible="false"
       use_knot_distance="true"
       apply_no_radius="true"
       apply_with_radius="true"
       only_selected="false"
       hide_knots="false" />
    <inkscape:path-effect
       effect="mirror_symmetry"
       start_point="146.3711,294.1564"
       end_point="146.3711,451.13411"
       center_point="146.3711,372.64526"
       id="path-effect317-5"
       is_visible="false"
       lpeversion="1.2"
       lpesatellites=""
       mode="vertical"
       discard_orig_path="false"
       fuse_paths="false"
       oposite_fuse="false"
       split_items="false"
       split_open="false"
       link_styles="false" />
    <inkscape:path-effect
       effect="fillet_chamfer"
       id="path-effect151-5"
       is_visible="true"
       lpeversion="1"
       nodesatellites_param="F,0,0,1,0,20,0,1 @ F,0,0,1,0,20,0,1 @ F,0,0,1,0,20,0,1 @ F,0,0,1,0,20,0,1"
       unit="px"
       method="auto"
       mode="F"
       radius="20"
       chamfer_steps="1"
       flexible="false"
       use_knot_distance="true"
       apply_no_radius="true"
       apply_with_radius="true"
       only_selected="false"
       hide_knots="false" />
    <inkscape:path-effect
       effect="mirror_symmetry"
       start_point="146.3711,294.1564"
       end_point="146.3711,451.13411"
       center_point="146.3711,372.64526"
       id="path-effect317-6"
       is_visible="false"
       lpeversion="1.2"
       lpesatellites=""
       mode="vertical"
       discard_orig_path="false"
       fuse_paths="false"
       oposite_fuse="false"
       split_items="false"
       split_open="false"
       link_styles="false" />
    <inkscape:path-effect
       effect="fillet_chamfer"
       id="path-effect151-9"
       is_visible="true"
       lpeversion="1"
       nodesatellites_param="F,0,0,1,0,20,0,1 @ F,0,0,1,0,20,0,1 @ F,0,0,1,0,20,0,1 @ F,0,0,1,0,20,0,1"
       unit="px"
       method="auto"
       mode="F"
       radius="20"
       chamfer_steps="1"
       flexible="false"
       use_knot_distance="true"
       apply_no_radius="true"
       apply_with_radius="true"
       only_selected="false"
       hide_knots="false" />
    <inkscape:path-effect
       effect="mirror_symmetry"
       start_point="146.3711,294.1564"
       end_point="146.3711,451.13411"
       center_point="146.3711,372.64526"
       id="path-effect317-1"
       is_visible="false"
       lpeversion="1.2"
       lpesatellites=""
       mode="vertical"
       discard_orig_path="false"
       fuse_paths="false"
       oposite_fuse="false"
       split_items="false"
       split_open="false"
       link_styles="false" />
  </defs>
  <g
     inkscape:label="Layer 1"
     inkscape:groupmode="layer"
     id="layer1"
     style="display:inline"
     transform="translate(-0.20153363,4.1059205)">
    <g
       id="g3891"
       inkscape:label="Headphone"
       inkscape:path-effect="#path-effect3893"
       class="UnoptimicedTransforms"
       transform="matrix(1.017643,0,0,1.017643,-8.8854026,-33.685215)">
      <g
         id="g983"
         inkscape:label="Headpiece"
         class="UnoptimicedTransforms"
         style="display:inline">
        <path
           id="rect458-6"
           style="display:inline;fill:#4b4b4b;fill-opacity:1;stroke:#4b4b4b;stroke-width:0.48317;stroke-dasharray:none;stroke-opacity:1"
           class="UnoptimicedTransforms"
           inkscape:label="Headpiece_2"
           d="m 261.74329,128.30187 c -0.006,-5.2e-4 -0.8734,-0.0768 -2.51116,-0.14533 -1.64332,-0.0688 -4.05332,-0.12919 -7.12203,-0.0934 -1.53436,0.0179 -3.23382,0.0594 -5.08367,0.13589 -1.84984,0.0765 -3.85057,0.18854 -5.98866,0.34539 -2.13809,0.15685 -4.4134,0.35928 -6.8125,0.61812 -2.3991,0.25884 -4.92138,0.57345 -7.55424,0.95596 -2.63287,0.3825 -5.37639,0.83296 -8.21578,1.3608 -2.83938,0.52784 -5.77464,1.13309 -8.79331,1.82793 -3.01867,0.69484 -6.12086,1.47854 -9.29158,2.36206 -3.17071,0.88351 -6.41034,1.86743 -9.70585,2.9613 -1.64776,0.54693 -3.30884,1.12148 -4.98269,1.72506 -1.67385,0.60359 -3.3607,1.23577 -5.05724,1.89871 -1.69654,0.66294 -3.4037,1.35677 -5.11952,2.08178 -1.71583,0.72501 -3.43973,1.48168 -5.17143,2.27146 -1.7317,0.78979 -3.47066,1.61237 -5.21483,2.46964 -1.74418,0.85728 -3.49368,1.74884 -5.24692,2.67631 -1.75325,0.92747 -3.51067,1.8911 -5.26957,2.89147 -1.75891,1.00037 -3.51973,2.03725 -5.2809,3.11323 -0.88058,0.538 -1.74781,1.09749 -2.60269,1.67694 -0.85489,0.57946 -1.6967,1.17934 -2.52626,1.79868 -0.82957,0.61933 -1.64709,1.25806 -2.45171,1.91569 -0.80462,0.65763 -1.5971,1.33365 -2.37716,2.02799 -1.56012,1.38869 -3.07123,2.84986 -4.53538,4.3759 -1.46414,1.52603 -2.88106,3.11774 -4.25227,4.76846 -1.3712,1.65073 -2.69636,3.36055 -3.97765,5.1233 -1.2813,1.76275 -2.51901,3.57827 -3.71343,5.44038 -1.19442,1.86211 -2.34616,3.7709 -3.45674,5.71971 -1.11057,1.9488 -2.17972,3.93751 -3.20949,5.96035 -1.02976,2.02283 -2.0197,4.07905 -2.97168,6.16324 -0.95199,2.0842 -1.86607,4.19644 -2.74331,6.32934 -0.87724,2.13289 -1.7179,4.28686 -2.52343,6.45578 -0.80552,2.16893 -1.57614,4.35315 -2.31298,6.54544 -0.73685,2.1923 -1.43985,4.39246 -2.11104,6.59546 -0.67119,2.203 -1.30995,4.40857 -1.91852,6.60961 -0.60858,2.20104 -1.1874,4.39772 -1.736395,6.58413 -0.548991,2.18641 -1.068426,4.36272 -1.560865,6.52185 -0.492438,2.15912 -0.957744,4.30076 -1.396662,6.41992 -0.438918,2.11917 -0.851579,4.21561 -1.24001,6.28215 -0.776861,4.13309 -1.455648,8.14865 -2.048752,11.99526 -0.593104,3.8466 -1.100836,7.52386 -1.534441,10.98267 -0.433606,3.4588 -0.793484,6.69842 -1.091851,9.66811 -0.298366,2.96969 -0.534536,5.66949 -0.721923,8.04874 -0.187387,2.37924 -0.325883,4.43801 -0.426548,6.12549 -0.201295,3.37437 -0.252891,5.26418 -0.252909,5.26485 l 29.481846,-0.0906 c 0.0555,-32.51765 1.43805,-64.54116 11.01098,-93.40273 3.14794,-9.6192 7.19773,-18.79411 12.39255,-27.04618 4.52529,-7.2615 10.08398,-14.02996 16.31263,-20.27708 14.68401,-14.6155 31.79587,-26.68147 50.53653,-34.13141 16.44203,-6.62995 34.39574,-9.85006 52.38144,-9.90781 z m 0.068,0 c 0.006,-5.2e-4 0.8734,-0.0768 2.51116,-0.14533 1.64332,-0.0688 4.05332,-0.12919 7.12203,-0.0934 1.53436,0.0179 3.23382,0.0594 5.08367,0.13589 1.84984,0.0765 3.85057,0.18854 5.98866,0.34539 2.13809,0.15685 4.4134,0.35928 6.8125,0.61812 2.3991,0.25884 4.92138,0.57345 7.55424,0.95596 2.63287,0.3825 5.37639,0.83296 8.21578,1.3608 2.83938,0.52784 5.77464,1.13309 8.79331,1.82793 3.01867,0.69484 6.12086,1.47854 9.29158,2.36206 3.17071,0.88351 6.41034,1.86743 9.70585,2.9613 1.64776,0.54693 3.30884,1.12148 4.98269,1.72506 1.67385,0.60359 3.3607,1.23577 5.05724,1.89871 1.69654,0.66294 3.4037,1.35677 5.11952,2.08178 1.71583,0.72501 3.43973,1.48168 5.17143,2.27146 1.7317,0.78979 3.47066,1.61237 5.21483,2.46964 1.74418,0.85728 3.49368,1.74884 5.24692,2.67631 1.75325,0.92747 3.51067,1.8911 5.26957,2.89147 1.75891,1.00037 3.51973,2.03725 5.2809,3.11323 0.88058,0.538 1.74781,1.09749 2.60269,1.67694 0.85489,0.57946 1.6967,1.17934 2.52626,1.79868 0.82957,0.61933 1.64709,1.25806 2.45171,1.91569 0.80462,0.65763 1.5971,1.33365 2.37716,2.02799 1.56012,1.38869 3.07123,2.84986 4.53538,4.3759 1.46414,1.52603 2.88106,3.11774 4.25227,4.76846 1.3712,1.65073 2.69636,3.36055 3.97765,5.1233 1.2813,1.76275 2.51901,3.57827 3.71343,5.44038 1.19442,1.86211 2.34616,3.7709 3.45674,5.71971 1.11057,1.9488 2.17972,3.93751 3.20949,5.96035 1.02976,2.02283 2.0197,4.07905 2.97168,6.16324 0.95199,2.0842 1.86607,4.19644 2.74331,6.32934 0.87724,2.13289 1.7179,4.28686 2.52343,6.45578 0.80552,2.16893 1.57614,4.35315 2.31298,6.54544 0.73685,2.1923 1.43985,4.39246 2.11104,6.59546 0.67119,2.203 1.30995,4.40857 1.91852,6.60961 0.60858,2.20104 1.1874,4.39772 1.7364,6.58413 0.54899,2.18641 1.06842,4.36272 1.56086,6.52185 0.49244,2.15912 0.95775,4.30076 1.39666,6.41992 0.43892,2.11917 0.85158,4.21561 1.24001,6.28215 0.77687,4.13309 1.45565,8.14865 2.04876,11.99526 0.5931,3.8466 1.10083,7.52386 1.53444,10.98267 0.4336,3.4588 0.79348,6.69842 1.09185,9.66811 0.29836,2.96969 0.53453,5.66949 0.72192,8.04874 0.18739,2.37924 0.32588,4.43801 0.42655,6.12549 0.20129,3.37437 0.25289,5.26418 0.25291,5.26485 l -29.48185,-0.0906 c -0.0555,-32.51765 -1.43805,-64.54116 -11.01098,-93.40273 -3.14794,-9.6192 -7.19773,-18.79411 -12.39255,-27.04618 -4.52529,-7.2615 -10.08398,-14.02996 -16.31263,-20.27708 -14.68401,-14.6155 -31.79587,-26.68147 -50.53653,-34.13141 -16.44203,-6.62995 -34.39574,-9.85006 -52.38144,-9.90781 z"
           transform="matrix(2.0696664,0,0,2.0696664,-29.738874,-100.23348)"
           inkscape:original-d="m 261.74329,128.30187 c -0.006,-5.2e-4 -0.8734,-0.0768 -2.51116,-0.14533 -1.64332,-0.0688 -4.05332,-0.12919 -7.12203,-0.0934 -1.53436,0.0179 -3.23382,0.0594 -5.08367,0.13589 -1.84984,0.0765 -3.85057,0.18854 -5.98866,0.34539 -2.13809,0.15685 -4.4134,0.35928 -6.8125,0.61812 -2.3991,0.25884 -4.92138,0.57345 -7.55424,0.95596 -2.63287,0.3825 -5.37639,0.83296 -8.21578,1.3608 -2.83938,0.52784 -5.77464,1.13309 -8.79331,1.82793 -3.01867,0.69484 -6.12086,1.47854 -9.29158,2.36206 -3.17071,0.88351 -6.41034,1.86743 -9.70585,2.9613 -1.64776,0.54693 -3.30884,1.12148 -4.98269,1.72506 -1.67385,0.60359 -3.3607,1.23577 -5.05724,1.89871 -1.69654,0.66294 -3.4037,1.35677 -5.11952,2.08178 -1.71583,0.72501 -3.43973,1.48168 -5.17143,2.27146 -1.7317,0.78979 -3.47066,1.61237 -5.21483,2.46964 -1.74418,0.85728 -3.49368,1.74884 -5.24692,2.67631 -1.75325,0.92747 -3.51067,1.8911 -5.26957,2.89147 -1.75891,1.00037 -3.51973,2.03725 -5.2809,3.11323 -0.88058,0.538 -1.74781,1.09749 -2.60269,1.67694 -0.85489,0.57946 -1.6967,1.17934 -2.52626,1.79868 -0.82957,0.61933 -1.64709,1.25806 -2.45171,1.91569 -0.80462,0.65763 -1.5971,1.33365 -2.37716,2.02799 -1.56012,1.38869 -3.07123,2.84986 -4.53538,4.3759 -1.46414,1.52603 -2.88106,3.11774 -4.25227,4.76846 -1.3712,1.65073 -2.69636,3.36055 -3.97765,5.1233 -1.2813,1.76275 -2.51901,3.57827 -3.71343,5.44038 -1.19442,1.86211 -2.34616,3.7709 -3.45674,5.71971 -1.11057,1.9488 -2.17972,3.93751 -3.20949,5.96035 -1.02976,2.02283 -2.0197,4.07905 -2.97168,6.16324 -0.95199,2.0842 -1.86607,4.19644 -2.74331,6.32934 -0.87724,2.13289 -1.7179,4.28686 -2.52343,6.45578 -0.80552,2.16893 -1.57614,4.35315 -2.31298,6.54544 -0.73685,2.1923 -1.43985,4.39246 -2.11104,6.59546 -0.67119,2.203 -1.30995,4.40857 -1.91852,6.60961 -0.60858,2.20104 -1.1874,4.39772 -1.736395,6.58413 -0.548991,2.18641 -1.068426,4.36272 -1.560865,6.52185 -0.492438,2.15912 -0.957744,4.30076 -1.396662,6.41992 -0.438918,2.11917 -0.851579,4.21561 -1.24001,6.28215 -0.776861,4.13309 -1.455648,8.14865 -2.048752,11.99526 -0.593104,3.8466 -1.100836,7.52386 -1.534441,10.98267 -0.433606,3.4588 -0.793484,6.69842 -1.091851,9.66811 -0.298366,2.96969 -0.534536,5.66949 -0.721923,8.04874 -0.187387,2.37924 -0.325883,4.43801 -0.426548,6.12549 -0.201295,3.37437 -0.252891,5.26418 -0.252909,5.26485 l 29.481846,-0.0906 c 0.0555,-32.51765 1.43805,-64.54116 11.01098,-93.40273 3.14794,-9.6192 7.19773,-18.79411 12.39255,-27.04618 4.52529,-7.2615 10.08398,-14.02996 16.31263,-20.27708 14.68401,-14.6155 31.79587,-26.68147 50.53653,-34.13141 16.44203,-6.62995 34.39574,-9.85006 52.38144,-9.90781 z" />
        <path
           id="path978"
           style="display:inline;fill:#a0a0a0;stroke:#a0a0a0;stroke-width:0.48317;stroke-dasharray:none;stroke-opacity:1;fill-opacity:1"
           class="UnoptimicedTransforms"
           inkscape:label="Headpiece_1"
           d="m 261.7197,98.814368 c -21.51423,0.02349 -43.12099,3.950742 -63.33769,12.029222 -22.93561,9.27167 -43.33747,23.50996 -60.40659,40.64759 -7.63716,7.6187 -14.57726,16.12169 -20.45638,25.48154 -6.63339,10.6438 -11.6995,21.9965 -15.44161,33.57841 -10.846982,33.97175 -12.70924,69.06314 -12.45106,102.60654 h 9.44e-4 c 1.8e-5,-6.7e-4 0.05161,-1.89048 0.252909,-5.26485 0.100665,-1.68748 0.239161,-3.74625 0.426548,-6.12549 0.187387,-2.37925 0.423557,-5.07905 0.721923,-8.04874 0.298367,-2.96969 0.658245,-6.20931 1.091851,-9.66811 0.433605,-3.45881 0.941337,-7.13607 1.534441,-10.98267 0.593104,-3.84661 1.271891,-7.86217 2.048752,-11.99526 0.388431,-2.06654 0.801092,-4.16298 1.24001,-6.28215 0.438918,-2.11916 0.904224,-4.2608 1.396662,-6.41992 0.492439,-2.15913 1.011874,-4.33544 1.560865,-6.52185 0.548995,-2.18641 1.127815,-4.38309 1.736395,-6.58413 0.60857,-2.20104 1.24733,-4.40661 1.91852,-6.60961 0.67119,-2.203 1.37419,-4.40316 2.11104,-6.59546 0.73684,-2.19229 1.50746,-4.37651 2.31298,-6.54544 0.80553,-2.16892 1.64619,-4.32289 2.52343,-6.45578 0.87724,-2.1329 1.79132,-4.24514 2.74331,-6.32934 0.95198,-2.08419 1.94192,-4.14041 2.97168,-6.16324 1.02977,-2.02284 2.09892,-4.01155 3.20949,-5.96035 1.11058,-1.94881 2.26232,-3.8576 3.45674,-5.71971 1.19442,-1.86211 2.43213,-3.67763 3.71343,-5.44038 1.28129,-1.76275 2.60645,-3.47257 3.97765,-5.1233 1.37121,-1.65072 2.78813,-3.24243 4.25227,-4.76846 1.46415,-1.52604 2.97526,-2.98721 4.53538,-4.3759 0.78006,-0.69434 1.57254,-1.37036 2.37716,-2.02799 0.80462,-0.65763 1.62214,-1.29636 2.45171,-1.91569 0.82956,-0.61934 1.67137,-1.21922 2.52626,-1.79868 0.85488,-0.57945 1.72211,-1.13894 2.60269,-1.67694 1.76117,-1.07598 3.52199,-2.11286 5.2809,-3.11323 1.7589,-1.00037 3.51632,-1.964 5.26957,-2.89147 1.75324,-0.92747 3.50274,-1.81903 5.24692,-2.67631 1.74417,-0.85727 3.48313,-1.67985 5.21483,-2.46964 1.7317,-0.78978 3.4556,-1.54645 5.17143,-2.27146 1.71582,-0.72501 3.42298,-1.41884 5.11952,-2.08178 1.69654,-0.66294 3.38339,-1.29512 5.05724,-1.89871 1.67385,-0.60358 3.33493,-1.17813 4.98269,-1.72506 3.29551,-1.09387 6.53514,-2.07779 9.70585,-2.9613 3.17072,-0.88352 6.27291,-1.66722 9.29158,-2.36206 3.01867,-0.69484 5.95393,-1.30009 8.79331,-1.82793 2.83939,-0.52784 5.58291,-0.9783 8.21578,-1.3608 2.63286,-0.38251 5.15514,-0.69712 7.55424,-0.95596 2.3991,-0.25884 4.67441,-0.46127 6.8125,-0.61812 2.13809,-0.15685 4.13882,-0.26886 5.98866,-0.34539 1.84985,-0.0765 3.54931,-0.11801 5.08367,-0.13589 3.06871,-0.0358 5.47871,0.0246 7.12203,0.0934 1.63776,0.0686 2.50526,0.14481 2.51116,0.14533 0.0113,-3e-5 0.0226,4e-5 0.034,0 z m 0.11518,0 c 21.51423,0.02349 43.12099,3.950742 63.33769,12.029222 22.93561,9.27167 43.33747,23.50996 60.40659,40.64759 7.63716,7.6187 14.57726,16.12169 20.45638,25.48154 6.63339,10.6438 11.6995,21.9965 15.44161,33.57841 10.84698,33.97175 12.70924,69.06314 12.45106,102.60654 h -9.4e-4 c -2e-5,-6.7e-4 -0.0516,-1.89048 -0.25291,-5.26485 -0.10067,-1.68748 -0.23916,-3.74625 -0.42655,-6.12549 -0.18739,-2.37925 -0.42356,-5.07905 -0.72192,-8.04874 -0.29837,-2.96969 -0.65825,-6.20931 -1.09185,-9.66811 -0.43361,-3.45881 -0.94134,-7.13607 -1.53444,-10.98267 -0.59311,-3.84661 -1.27189,-7.86217 -2.04876,-11.99526 -0.38843,-2.06654 -0.80109,-4.16298 -1.24001,-6.28215 -0.43891,-2.11916 -0.90422,-4.2608 -1.39666,-6.41992 -0.49244,-2.15913 -1.01187,-4.33544 -1.56086,-6.52185 -0.549,-2.18641 -1.12782,-4.38309 -1.7364,-6.58413 -0.60857,-2.20104 -1.24733,-4.40661 -1.91852,-6.60961 -0.67119,-2.203 -1.37419,-4.40316 -2.11104,-6.59546 -0.73684,-2.19229 -1.50746,-4.37651 -2.31298,-6.54544 -0.80553,-2.16892 -1.64619,-4.32289 -2.52343,-6.45578 -0.87724,-2.1329 -1.79132,-4.24514 -2.74331,-6.32934 -0.95198,-2.08419 -1.94192,-4.14041 -2.97168,-6.16324 -1.02977,-2.02284 -2.09892,-4.01155 -3.20949,-5.96035 -1.11058,-1.94881 -2.26232,-3.8576 -3.45674,-5.71971 -1.19442,-1.86211 -2.43213,-3.67763 -3.71343,-5.44038 -1.28129,-1.76275 -2.60645,-3.47257 -3.97765,-5.1233 -1.37121,-1.65072 -2.78813,-3.24243 -4.25227,-4.76846 -1.46415,-1.52604 -2.97526,-2.98721 -4.53538,-4.3759 -0.78006,-0.69434 -1.57254,-1.37036 -2.37716,-2.02799 -0.80462,-0.65763 -1.62214,-1.29636 -2.45171,-1.91569 -0.82956,-0.61934 -1.67137,-1.21922 -2.52626,-1.79868 -0.85488,-0.57945 -1.72211,-1.13894 -2.60269,-1.67694 -1.76117,-1.07598 -3.52199,-2.11286 -5.2809,-3.11323 -1.7589,-1.00037 -3.51632,-1.964 -5.26957,-2.89147 -1.75324,-0.92747 -3.50274,-1.81903 -5.24692,-2.67631 -1.74417,-0.85727 -3.48313,-1.67985 -5.21483,-2.46964 -1.7317,-0.78978 -3.4556,-1.54645 -5.17143,-2.27146 -1.71582,-0.72501 -3.42298,-1.41884 -5.11952,-2.08178 -1.69654,-0.66294 -3.38339,-1.29512 -5.05724,-1.89871 -1.67385,-0.60358 -3.33493,-1.17813 -4.98269,-1.72506 -3.29551,-1.09387 -6.53514,-2.07779 -9.70585,-2.9613 -3.17072,-0.88352 -6.27291,-1.66722 -9.29158,-2.36206 -3.01867,-0.69484 -5.95393,-1.30009 -8.79331,-1.82793 -2.83939,-0.52784 -5.58291,-0.9783 -8.21578,-1.3608 -2.63286,-0.38251 -5.15514,-0.69712 -7.55424,-0.95596 -2.3991,-0.25884 -4.67441,-0.46127 -6.8125,-0.61812 -2.13809,-0.15685 -4.13882,-0.26886 -5.98866,-0.34539 -1.84985,-0.0765 -3.54931,-0.11801 -5.08367,-0.13589 -3.06871,-0.0358 -5.47871,0.0246 -7.12203,0.0934 -1.63776,0.0686 -2.50526,0.14481 -2.51116,0.14533 -0.0113,-3e-5 -0.0226,4e-5 -0.034,0 z"
           transform="matrix(2.0696664,0,0,2.0696664,-29.738874,-100.23348)"
           inkscape:original-d="m 261.7197,98.814368 c -21.51423,0.02349 -43.12099,3.950742 -63.33769,12.029222 -22.93561,9.27167 -43.33747,23.50996 -60.40659,40.64759 -7.63716,7.6187 -14.57726,16.12169 -20.45638,25.48154 -6.63339,10.6438 -11.6995,21.9965 -15.44161,33.57841 -10.846982,33.97175 -12.70924,69.06314 -12.45106,102.60654 h 9.44e-4 c 1.8e-5,-6.7e-4 0.05161,-1.89048 0.252909,-5.26485 0.100665,-1.68748 0.239161,-3.74625 0.426548,-6.12549 0.187387,-2.37925 0.423557,-5.07905 0.721923,-8.04874 0.298367,-2.96969 0.658245,-6.20931 1.091851,-9.66811 0.433605,-3.45881 0.941337,-7.13607 1.534441,-10.98267 0.593104,-3.84661 1.271891,-7.86217 2.048752,-11.99526 0.388431,-2.06654 0.801092,-4.16298 1.24001,-6.28215 0.438918,-2.11916 0.904224,-4.2608 1.396662,-6.41992 0.492439,-2.15913 1.011874,-4.33544 1.560865,-6.52185 0.548995,-2.18641 1.127815,-4.38309 1.736395,-6.58413 0.60857,-2.20104 1.24733,-4.40661 1.91852,-6.60961 0.67119,-2.203 1.37419,-4.40316 2.11104,-6.59546 0.73684,-2.19229 1.50746,-4.37651 2.31298,-6.54544 0.80553,-2.16892 1.64619,-4.32289 2.52343,-6.45578 0.87724,-2.1329 1.79132,-4.24514 2.74331,-6.32934 0.95198,-2.08419 1.94192,-4.14041 2.97168,-6.16324 1.02977,-2.02284 2.09892,-4.01155 3.20949,-5.96035 1.11058,-1.94881 2.26232,-3.8576 3.45674,-5.71971 1.19442,-1.86211 2.43213,-3.67763 3.71343,-5.44038 1.28129,-1.76275 2.60645,-3.47257 3.97765,-5.1233 1.37121,-1.65072 2.78813,-3.24243 4.25227,-4.76846 1.46415,-1.52604 2.97526,-2.98721 4.53538,-4.3759 0.78006,-0.69434 1.57254,-1.37036 2.37716,-2.02799 0.80462,-0.65763 1.62214,-1.29636 2.45171,-1.91569 0.82956,-0.61934 1.67137,-1.21922 2.52626,-1.79868 0.85488,-0.57945 1.72211,-1.13894 2.60269,-1.67694 1.76117,-1.07598 3.52199,-2.11286 5.2809,-3.11323 1.7589,-1.00037 3.51632,-1.964 5.26957,-2.89147 1.75324,-0.92747 3.50274,-1.81903 5.24692,-2.67631 1.74417,-0.85727 3.48313,-1.67985 5.21483,-2.46964 1.7317,-0.78978 3.4556,-1.54645 5.17143,-2.27146 1.71582,-0.72501 3.42298,-1.41884 5.11952,-2.08178 1.69654,-0.66294 3.38339,-1.29512 5.05724,-1.89871 1.67385,-0.60358 3.33493,-1.17813 4.98269,-1.72506 3.29551,-1.09387 6.53514,-2.07779 9.70585,-2.9613 3.17072,-0.88352 6.27291,-1.66722 9.29158,-2.36206 3.01867,-0.69484 5.95393,-1.30009 8.79331,-1.82793 2.83939,-0.52784 5.58291,-0.9783 8.21578,-1.3608 2.63286,-0.38251 5.15514,-0.69712 7.55424,-0.95596 2.3991,-0.25884 4.67441,-0.46127 6.8125,-0.61812 2.13809,-0.15685 4.13882,-0.26886 5.98866,-0.34539 1.84985,-0.0765 3.54931,-0.11801 5.08367,-0.13589 3.06871,-0.0358 5.47871,0.0246 7.12203,0.0934 1.63776,0.0686 2.50526,0.14481 2.51116,0.14533 0.0113,-3e-5 0.0226,4e-5 0.034,0 z" />
      </g>
      <g
         id="g6031"
         inkscape:label="Earpad"
         class="UnoptimicedTransforms"
         style="display:inline;stroke:#2b2b2b;stroke-width:1;stroke-dasharray:none;stroke-opacity:1"
         transform="matrix(2.4241725,0,0,2.4241725,-66.873237,-124.90426)">
        <path
           id="rect149-3"
           style="display:inline;fill:#54cfff;fill-opacity:1;stroke:#54cfff;stroke-width:0.567717;stroke-dasharray:none;stroke-opacity:1"
           class="UnoptimicedTransforms"
           inkscape:label="Earpad_6"
           d="m 82.192428,323.48418 v -21.43282 h -7.49661 c -16.568719,2.3e-4 -29.999514,13.43253 -29.999011,30.00125 v 22.22511 c 0.770461,-0.3069 1.541249,-0.61406 2.302782,-0.92825 1.030782,-0.42528 2.053156,-0.85779 3.06451,-1.29896 1.011353,-0.44116 2.012009,-0.89086 3.000403,-1.3508 0.988394,-0.45993 1.964341,-0.92985 2.926243,-1.41144 0.961901,-0.4816 1.908889,-0.97475 2.840767,-1.48089 0.931878,-0.50614 1.848173,-1.02557 2.746495,-1.55915 0.898322,-0.53357 1.779674,-1.08132 2.640908,-1.64521 0.861234,-0.5639 1.702139,-1.14397 2.522753,-1.74108 0.820614,-0.5971 1.620592,-1.21155 2.397055,-1.84475 0.776462,-0.63321 1.530009,-1.28505 2.258787,-1.95724 0.36439,-0.3361 0.722909,-0.67773 1.074715,-1.02411 0.351807,-0.34638 0.696968,-0.69739 1.035749,-1.05442 0.338782,-0.35704 0.670211,-0.71964 0.995526,-1.08769 0.325315,-0.36804 0.643895,-0.74152 0.955303,-1.12094 0.311407,-0.37941 0.616321,-0.76438 0.913822,-1.15517 0.2975,-0.39078 0.588307,-0.78761 0.872342,-1.18941 0.56807,-0.80359 1.109671,-1.6292 1.626528,-2.47467 0.516857,-0.84547 1.009029,-1.71052 1.478205,-2.59498 0.469176,-0.88446 0.91491,-1.78789 1.339937,-2.70845 0.176215,-0.38166 0.333735,-0.77841 0.502791,-1.16593 z m 537.780032,0 v -21.43282 h 7.49661 c 16.56872,2.3e-4 29.99952,13.43253 29.99901,30.00125 v 22.22511 c -0.77046,-0.3069 -1.54125,-0.61406 -2.30278,-0.92825 -1.03078,-0.42528 -2.05316,-0.85779 -3.06451,-1.29896 -1.01135,-0.44116 -2.01201,-0.89086 -3.0004,-1.3508 -0.9884,-0.45993 -1.96434,-0.92985 -2.92625,-1.41144 -0.9619,-0.4816 -1.90888,-0.97475 -2.84076,-1.48089 -0.93188,-0.50614 -1.84818,-1.02557 -2.7465,-1.55915 -0.89832,-0.53357 -1.77967,-1.08132 -2.64091,-1.64521 -0.86123,-0.5639 -1.70213,-1.14397 -2.52275,-1.74108 -0.82061,-0.5971 -1.62059,-1.21155 -2.39705,-1.84475 -0.77647,-0.63321 -1.53001,-1.28505 -2.25879,-1.95724 -0.36439,-0.3361 -0.72291,-0.67773 -1.07472,-1.02411 -0.3518,-0.34638 -0.69696,-0.69739 -1.03574,-1.05442 -0.33879,-0.35704 -0.67022,-0.71964 -0.99553,-1.08769 -0.32532,-0.36804 -0.6439,-0.74152 -0.9553,-1.12094 -0.31141,-0.37941 -0.61632,-0.76438 -0.91383,-1.15517 -0.2975,-0.39078 -0.5883,-0.78761 -0.87234,-1.18941 -0.56807,-0.80359 -1.10967,-1.6292 -1.62653,-2.47467 -0.51685,-0.84547 -1.00902,-1.71052 -1.4782,-2.59498 -0.46918,-0.88446 -0.91491,-1.78789 -1.33994,-2.70845 -0.17621,-0.38166 -0.33373,-0.77841 -0.50279,-1.16593 z"
           transform="matrix(0.64097225,0,0,0.82370033,13.77977,55.078843)"
           inkscape:original-d="m 82.192428,323.48418 v -21.43282 h -7.49661 c -16.568719,2.3e-4 -29.999514,13.43253 -29.999011,30.00125 v 22.22511 c 0.770461,-0.3069 1.541249,-0.61406 2.302782,-0.92825 1.030782,-0.42528 2.053156,-0.85779 3.06451,-1.29896 1.011353,-0.44116 2.012009,-0.89086 3.000403,-1.3508 0.988394,-0.45993 1.964341,-0.92985 2.926243,-1.41144 0.961901,-0.4816 1.908889,-0.97475 2.840767,-1.48089 0.931878,-0.50614 1.848173,-1.02557 2.746495,-1.55915 0.898322,-0.53357 1.779674,-1.08132 2.640908,-1.64521 0.861234,-0.5639 1.702139,-1.14397 2.522753,-1.74108 0.820614,-0.5971 1.620592,-1.21155 2.397055,-1.84475 0.776462,-0.63321 1.530009,-1.28505 2.258787,-1.95724 0.36439,-0.3361 0.722909,-0.67773 1.074715,-1.02411 0.351807,-0.34638 0.696968,-0.69739 1.035749,-1.05442 0.338782,-0.35704 0.670211,-0.71964 0.995526,-1.08769 0.325315,-0.36804 0.643895,-0.74152 0.955303,-1.12094 0.311407,-0.37941 0.616321,-0.76438 0.913822,-1.15517 0.2975,-0.39078 0.588307,-0.78761 0.872342,-1.18941 0.56807,-0.80359 1.109671,-1.6292 1.626528,-2.47467 0.516857,-0.84547 1.009029,-1.71052 1.478205,-2.59498 0.469176,-0.88446 0.91491,-1.78789 1.339937,-2.70845 0.176215,-0.38166 0.333735,-0.77841 0.502791,-1.16593 z" />
        <path
           id="path4510"
           style="display:inline;fill:#00a5e5;stroke:#00a5e5;stroke-width:0.567717;stroke-dasharray:none;stroke-opacity:1;fill-opacity:1"
           class="UnoptimicedTransforms"
           inkscape:label="Earpad_5"
           d="m 82.192428,323.48418 c -0.169056,0.38752 -0.326576,0.78427 -0.502791,1.16593 -0.425027,0.92056 -0.870761,1.82399 -1.339937,2.70845 -0.469176,0.88446 -0.961348,1.74951 -1.478205,2.59498 -0.516857,0.84547 -1.058458,1.67108 -1.626528,2.47467 -0.284035,0.4018 -0.574842,0.79863 -0.872342,1.18941 -0.297501,0.39079 -0.602415,0.77576 -0.913822,1.15517 -0.311408,0.37942 -0.629988,0.7529 -0.955303,1.12094 -0.325315,0.36805 -0.656744,0.73065 -0.995526,1.08769 -0.338781,0.35703 -0.683942,0.70804 -1.035749,1.05442 -0.351806,0.34638 -0.710325,0.68801 -1.074715,1.02411 -0.728778,0.67219 -1.482325,1.32403 -2.258787,1.95724 -0.776463,0.6332 -1.576441,1.24765 -2.397055,1.84475 -0.820614,0.59711 -1.661519,1.17718 -2.522753,1.74108 -0.861234,0.56389 -1.742586,1.11164 -2.640908,1.64521 -0.898322,0.53358 -1.814617,1.05301 -2.746495,1.55915 -0.931878,0.50614 -1.878866,0.99929 -2.840767,1.48089 -0.961902,0.48159 -1.937849,0.95151 -2.926243,1.41144 -0.988394,0.45994 -1.98905,0.90964 -3.000403,1.3508 -1.011354,0.44117 -2.033728,0.87368 -3.06451,1.29896 -0.761533,0.31419 -1.532321,0.62135 -2.302782,0.92825 v 59.85578 c -4.97e-4,16.56871 13.430295,30.00004 29.999011,30.00027 h 7.49661 z m 537.780032,0 c 0.16906,0.38752 0.32658,0.78427 0.50279,1.16593 0.42503,0.92056 0.87076,1.82399 1.33994,2.70845 0.46918,0.88446 0.96135,1.74951 1.4782,2.59498 0.51686,0.84547 1.05846,1.67108 1.62653,2.47467 0.28404,0.4018 0.57484,0.79863 0.87234,1.18941 0.29751,0.39079 0.60242,0.77576 0.91383,1.15517 0.3114,0.37942 0.62998,0.7529 0.9553,1.12094 0.32531,0.36805 0.65674,0.73065 0.99553,1.08769 0.33878,0.35703 0.68394,0.70804 1.03574,1.05442 0.35181,0.34638 0.71033,0.68801 1.07472,1.02411 0.72878,0.67219 1.48232,1.32403 2.25879,1.95724 0.77646,0.6332 1.57644,1.24765 2.39705,1.84475 0.82062,0.59711 1.66152,1.17718 2.52275,1.74108 0.86124,0.56389 1.74259,1.11164 2.64091,1.64521 0.89832,0.53358 1.81462,1.05301 2.7465,1.55915 0.93188,0.50614 1.87886,0.99929 2.84076,1.48089 0.96191,0.48159 1.93785,0.95151 2.92625,1.41144 0.98839,0.45994 1.98905,0.90964 3.0004,1.3508 1.01135,0.44117 2.03373,0.87368 3.06451,1.29896 0.76153,0.31419 1.53232,0.62135 2.30278,0.92825 v 59.85578 c 5e-4,16.56871 -13.43029,30.00004 -29.99901,30.00027 h -7.49661 z"
           transform="matrix(0.64097225,0,0,0.82370033,13.77977,55.078843)"
           inkscape:original-d="m 82.192428,323.48418 c -0.169056,0.38752 -0.326576,0.78427 -0.502791,1.16593 -0.425027,0.92056 -0.870761,1.82399 -1.339937,2.70845 -0.469176,0.88446 -0.961348,1.74951 -1.478205,2.59498 -0.516857,0.84547 -1.058458,1.67108 -1.626528,2.47467 -0.284035,0.4018 -0.574842,0.79863 -0.872342,1.18941 -0.297501,0.39079 -0.602415,0.77576 -0.913822,1.15517 -0.311408,0.37942 -0.629988,0.7529 -0.955303,1.12094 -0.325315,0.36805 -0.656744,0.73065 -0.995526,1.08769 -0.338781,0.35703 -0.683942,0.70804 -1.035749,1.05442 -0.351806,0.34638 -0.710325,0.68801 -1.074715,1.02411 -0.728778,0.67219 -1.482325,1.32403 -2.258787,1.95724 -0.776463,0.6332 -1.576441,1.24765 -2.397055,1.84475 -0.820614,0.59711 -1.661519,1.17718 -2.522753,1.74108 -0.861234,0.56389 -1.742586,1.11164 -2.640908,1.64521 -0.898322,0.53358 -1.814617,1.05301 -2.746495,1.55915 -0.931878,0.50614 -1.878866,0.99929 -2.840767,1.48089 -0.961902,0.48159 -1.937849,0.95151 -2.926243,1.41144 -0.988394,0.45994 -1.98905,0.90964 -3.000403,1.3508 -1.011354,0.44117 -2.033728,0.87368 -3.06451,1.29896 -0.761533,0.31419 -1.532321,0.62135 -2.302782,0.92825 v 59.85578 c -4.97e-4,16.56871 13.430295,30.00004 29.999011,30.00027 h 7.49661 z" />
        <path
           id="path4411"
           style="display:inline;fill:#2557ce;fill-opacity:1;stroke:#2557ce;stroke-width:0.811439;stroke-dasharray:none;stroke-opacity:1"
           class="UnoptimicedTransforms"
           d="m 63.075969,302.234 c -10.338457,0.84039 -18.318705,9.44514 -18.379243,19.81752 v 100.90935 c 0.03609,2.60264 0.579862,5.17322 1.600822,7.56752 z m 236.741091,0 c 10.33846,0.84039 18.31871,9.44514 18.37924,19.81752 v 100.90935 c -0.0361,2.60264 -0.57986,5.17322 -1.60082,7.56752 z"
           transform="matrix(1.2603382,0,0,1.205038,10.1299,-86.488613)"
           inkscape:label="Earpad_4"
           inkscape:original-d="m 63.075969,302.234 a 20,20 0 0 0 -18.379243,19.81752 v 100.90935 a 20,20 0 0 0 1.600822,7.56752 z" />
        <path
           id="path5639"
           style="display:inline;fill:#1e43a2;fill-opacity:1;stroke:#1e43a2;stroke-width:0.811439;stroke-dasharray:none;stroke-opacity:1"
           class="UnoptimicedTransforms"
           d="M 63.075969,302.234 46.297548,430.52839 c 2.865301,6.88921 9.32723,11.61064 16.761374,12.24676 z m 236.741091,0 16.77842,128.29439 c -2.8653,6.88921 -9.32723,11.61064 -16.76137,12.24676 z"
           transform="matrix(1.2603382,0,0,1.205038,10.1299,-86.488613)"
           inkscape:label="Earpad_3"
           inkscape:original-d="M 63.075969,302.234 46.297548,430.52839 a 20,20 0 0 0 16.761374,12.24676 z" />
        <path
           id="path4908"
           style="display:inline;fill:#878787;fill-opacity:1;stroke:#878787;stroke-width:0.811439;stroke-dasharray:none;stroke-opacity:1"
           class="UnoptimicedTransforms"
           d="M 102.03346,433.19784 63.075969,302.234 63.058922,442.77515 c 0.54272,0.084 1.088672,0.14567 1.636466,0.18477 h 20.241963 c 7.016584,-0.0298 13.504379,-3.73441 17.096109,-9.76208 z m 158.82611,0 38.95749,-130.96384 0.017,140.54115 c -0.54272,0.084 -1.08867,0.14567 -1.63647,0.18477 h -20.24196 c -7.01658,-0.0298 -13.50438,-3.73441 -17.09611,-9.76208 z"
           transform="matrix(1.2603382,0,0,1.205038,10.1299,-86.488613)"
           inkscape:label="Earpad_2"
           inkscape:original-d="M 102.03346,433.19784 63.075969,302.234 63.058922,442.77515 a 20,20 0 0 0 1.636466,0.18477 h 20.241963 a 20,20 0 0 0 17.096109,-9.76208 z" />
        <path
           id="path5644"
           style="display:inline;fill:#707070;fill-opacity:1;stroke:#707070;stroke-width:0.811439;stroke-dasharray:none;stroke-opacity:1"
           class="UnoptimicedTransforms"
           d="m 64.695388,302.05247 c -0.542048,0.0385 -1.082303,0.099 -1.619419,0.18153 l 38.957491,130.96384 c 1.87468,-3.08747 2.87824,-6.62501 2.9041,-10.23697 V 322.05152 c -5.2e-4,-11.04541 -8.954803,-19.99917 -20.000209,-19.99905 z m 233.502252,0 c 0.54205,0.0385 1.08231,0.099 1.61942,0.18153 l -38.95749,130.96384 c -1.87468,-3.08747 -2.87824,-6.62501 -2.9041,-10.23697 V 322.05152 c 5.3e-4,-11.04541 8.9548,-19.99917 20.00021,-19.99905 z"
           transform="matrix(1.2603382,0,0,1.205038,10.1299,-86.488613)"
           inkscape:label="Earpad_1"
           inkscape:original-d="m 64.695388,302.05247 a 20,20 0 0 0 -1.619419,0.18153 l 38.957491,130.96384 a 20,20 0 0 0 2.9041,-10.23697 V 322.05152 A 20,20 0 0 0 84.937351,302.05247 Z" />
      </g>
    </g>
    <g
       id="g3060"
       inkscape:label="Gear"
       transform="matrix(0.74723416,0,0,0.74723416,259.77437,205.46906)"
       style="stroke:none;stroke-width:1.73305781;stroke-dasharray:none;stroke-opacity:1">
      <path
         id="path541"
         style="display:inline;fill:#b2b2b2;fill-opacity:1;stroke:#858585;stroke-width:1.28383574;stroke-dasharray:none;stroke-opacity:1"
         inkscape:label="Gear_2"
         d="m -1.9757992,-44.519655 -3.0098851,6.649327 -0.2291515,2.357469 0.5902103,4.019613 -7.1169995,1.907035 -1.498384,-3.776222 -1.377345,-1.927083 -5.931332,-4.253449 -3.422096,1.975799 0.717808,7.263334 0.980312,2.156422 2.521041,3.185824 -5.209965,5.209965 -3.185824,-2.521041 -2.156422,-0.980312 -7.263334,-0.717808 -1.975799,3.422096 4.253449,5.931332 1.927083,1.377345 3.776222,1.498384 -1.907035,7.1169995 -4.019613,-0.5902103 -2.357469,0.2291515 -6.649327,3.0098851 v 3.9515984 l 6.649327,3.0098851 2.357469,0.2291515 4.019613,-0.5902103 1.907035,7.1169995 -3.776222,1.498384 -1.927083,1.377345 -4.253449,5.931332 1.975799,3.422096 7.263334,-0.717808 2.156422,-0.980312 3.185824,-2.521041 5.209965,5.209965 -2.521041,3.185824 -0.980312,2.156422 -0.717808,7.263334 3.422096,1.975799 5.931332,-4.253449 1.377345,-1.927083 1.498384,-3.776222 7.1169995,1.907035 -0.5902103,4.019613 0.2291515,2.357469 3.0098851,6.649327 h 3.9515984 l 3.0098851,-6.649327 0.2291515,-2.357469 -0.5902103,-4.019613 7.1169995,-1.907035 1.498384,3.776222 1.377345,1.927083 5.931332,4.253449 3.422096,-1.975799 -0.717808,-7.263334 -0.980312,-2.156422 -2.521041,-3.185824 5.209965,-5.209965 3.185824,2.521041 2.156422,0.980312 7.263334,0.717808 1.975799,-3.422096 -4.253449,-5.931332 -1.927083,-1.377345 -3.776222,-1.498384 1.907035,-7.1169995 4.019613,0.5902103 2.357469,-0.2291515 6.649327,-3.0098851 v -3.9515984 l -6.649327,-3.0098851 -2.357469,-0.2291515 -4.019613,0.5902103 -1.907035,-7.1169995 3.776222,-1.498384 1.927083,-1.377345 4.253449,-5.931332 -1.975799,-3.422096 -7.263334,0.717808 -2.156422,0.980312 -3.185824,2.521041 -5.209965,-5.209965 2.521041,-3.185824 0.980312,-2.156422 0.717808,-7.263334 -3.422096,-1.975799 -5.931332,4.253449 -1.377345,1.927083 -1.498384,3.776222 -7.1169995,-1.907035 0.5902103,-4.019613 -0.2291515,-2.357469 -3.0098851,-6.649327 z M 0,-23.736197 A 23.736276,23.736276 0 0 1 23.736197,0 23.736276,23.736276 0 0 1 0,23.736197 23.736276,23.736276 0 0 1 -23.736197,0 23.736276,23.736276 0 0 1 0,-23.736197 Z"
         transform="matrix(10.423986,0,0,10.423986,512,512)" />
      <path
         id="path2016"
         style="display:inline;fill:#858585;fill-opacity:1;stroke:#858585;stroke-width:1.28383574;stroke-dasharray:none;stroke-opacity:1"
         inkscape:label="Gear_1"
         d="M 0,-23.736197 A 23.736276,23.736276 0 0 0 -23.736197,0 23.736276,23.736276 0 0 0 0,23.736197 23.736276,23.736276 0 0 0 23.736197,0 23.736276,23.736276 0 0 0 0,-23.736197 Z m 0,12.056404 A 11.679713,11.679713 0 0 1 11.679793,0 11.679713,11.679713 0 0 1 0,11.679793 11.679713,11.679713 0 0 1 -11.679793,0 11.679713,11.679713 0 0 1 0,-11.679793 Z"
         transform="matrix(10.423986,0,0,10.423986,512,512)" />
    </g>
  </g>
</svg>
