<?xml version="1.0" encoding="UTF-8" standalone="no"?>
<!-- Created with Inkscape (http://www.inkscape.org/) -->

<svg
   width="1024"
   height="1024"
   viewBox="0 0 1024 1024"
   version="1.1"
   id="svg5"
   inkscape:version="1.3.2 (091e20ef0f, 2023-11-25, custom)"
   sodipodi:docname="sc-status-headsetkontrol-battery-000.svg"
   inkscape:export-filename="app-icon.png"
   inkscape:export-xdpi="96"
   inkscape:export-ydpi="96"
   xmlns:inkscape="http://www.inkscape.org/namespaces/inkscape"
   xmlns:sodipodi="http://sodipodi.sourceforge.net/DTD/sodipodi-0.dtd"
   xmlns="http://www.w3.org/2000/svg"
   xmlns:svg="http://www.w3.org/2000/svg">
  <sodipodi:namedview
     id="namedview7"
     pagecolor="#ffffff"
     bordercolor="#000000"
     borderopacity="0.25"
     inkscape:showpageshadow="false"
     inkscape:pageopacity="0.0"
     inkscape:pagecheckerboard="true"
     inkscape:deskcolor="#d1d1d1"
     inkscape:document-units="px"
     showgrid="false"
     showborder="true"
     borderlayer="true"
     inkscape:zoom="0.5"
     inkscape:cx="530"
     inkscape:cy="354"
     inkscape:window-width="1920"
     inkscape:window-height="1008"
     inkscape:window-x="0"
     inkscape:window-y="0"
     inkscape:window-maximized="1"
     inkscape:current-layer="g1871">
    <sodipodi:guide
       position="0,1024"
       orientation="0,1024"
       id="guide9401"
       inkscape:locked="false" />
    <sodipodi:guide
       position="1024,1024"
       orientation="1024,0"
       id="guide9403"
       inkscape:locked="false" />
    <sodipodi:guide
       position="1024,0"
       orientation="0,-1024"
       id="guide9405"
       inkscape:locked="false" />
    <sodipodi:guide
       position="0,0"
       orientation="-1024,0"
       id="guide9407"
       inkscape:locked="false" />
  </sodipodi:namedview>
  <defs
     id="defs2">
    <inkscape:path-effect
       effect="fillet_chamfer"
       id="path-effect1927"
       is_visible="true"
       lpeversion="1"
       nodesatellites_param="F,0,0,1,0,10,0,1 @ F,0,0,1,0,10,0,1 @ F,0,0,1,0,10,0,1 @ F,0,0,1,0,10,0,1"
       unit="px"
       method="auto"
       mode="F"
       radius="10"
       chamfer_steps="1"
       flexible="false"
       use_knot_distance="true"
       apply_no_radius="true"
       apply_with_radius="true"
       only_selected="false"
       hide_knots="false" />
    <inkscape:path-effect
       effect="mirror_symmetry"
       start_point="512.05279,104.2793"
       end_point="512.05279,547.89847"
       center_point="512.05279,326.08888"
       id="path-effect435"
       is_visible="true"
       lpeversion="1.2"
       lpesatellites=""
       mode="vertical"
       discard_orig_path="false"
       fuse_paths="true"
       oposite_fuse="false"
       split_items="false"
       split_open="false"
       link_styles="false" />
    <inkscape:path-effect
       effect="fillet_chamfer"
       id="path-effect433"
       is_visible="true"
       lpeversion="1"
       nodesatellites_param="F,0,0,1,0,30,0,1 @ F,0,0,1,0,30,0,1 @ F,0,0,1,0,30,0,1 @ F,0,0,1,0,30,0,1"
       unit="px"
       method="auto"
       mode="F"
       radius="30"
       chamfer_steps="1"
       flexible="false"
       use_knot_distance="true"
       apply_no_radius="true"
       apply_with_radius="true"
       only_selected="false"
       hide_knots="false" />
    <inkscape:path-effect
       effect="fillet_chamfer"
       id="path-effect381"
       is_visible="true"
       lpeversion="1"
       nodesatellites_param="F,0,0,1,0,30,0,1 @ F,0,0,1,0,30,0,1 @ F,0,0,1,0,30,0,1 @ F,0,0,1,0,30,0,1"
       unit="px"
       method="auto"
       mode="F"
       radius="30"
       chamfer_steps="1"
       flexible="false"
       use_knot_distance="true"
       apply_no_radius="true"
       apply_with_radius="true"
       only_selected="false"
       hide_knots="false" />
    <inkscape:path-effect
       effect="mirror_symmetry"
       start_point="512.05279,104.2793"
       end_point="512.05279,959.41579"
       center_point="512.05279,531.84754"
       id="path-effect3893"
       is_visible="true"
       lpeversion="1.2"
       lpesatellites=""
       mode="free"
       discard_orig_path="false"
       fuse_paths="false"
       oposite_fuse="false"
       split_items="false"
       split_open="false"
       link_styles="false" />
    <inkscape:path-effect
       effect="bspline"
       id="path-effect4508"
       is_visible="true"
       lpeversion="1"
       weight="33.333333"
       steps="2"
       helper_size="0"
       apply_no_weight="true"
       apply_with_weight="true"
       only_selected="false" />
    <inkscape:path-effect
       effect="mirror_symmetry"
       start_point="512.05273,104.2793"
       end_point="512.05273,547.89843"
       center_point="512.05273,326.08886"
       id="path-effect985"
       is_visible="true"
       lpeversion="1.2"
       lpesatellites=""
       mode="vertical"
       discard_orig_path="false"
       fuse_paths="true"
       oposite_fuse="false"
       split_items="false"
       split_open="false"
       link_styles="false" />
    <inkscape:path-effect
       effect="mirror_symmetry"
       start_point="284.44444,0"
       end_point="284.44444,568.88889"
       center_point="284.44444,284.44444"
       id="path-effect6033"
       is_visible="true"
       lpeversion="1.2"
       lpesatellites=""
       mode="vertical"
       discard_orig_path="false"
       fuse_paths="false"
       oposite_fuse="false"
       split_items="false"
       split_open="false"
       link_styles="false" />
    <inkscape:path-effect
       effect="mirror_symmetry"
       start_point="195.12783,72.359174"
       end_point="195.12783,497.24204"
       center_point="195.12783,284.80061"
       id="path-effect4419"
       is_visible="true"
       lpeversion="1.2"
       lpesatellites=""
       mode="vertical"
       discard_orig_path="false"
       fuse_paths="false"
       oposite_fuse="false"
       split_items="false"
       split_open="false"
       link_styles="false" />
    <inkscape:path-effect
       effect="fillet_chamfer"
       id="path-effect4415"
       is_visible="true"
       lpeversion="1"
       nodesatellites_param="F,0,0,1,0,20,0,1 @ F,0,0,1,0,20,0,1 @ F,0,0,1,0,20,0,1 @ F,0,0,1,0,20,0,1"
       unit="px"
       method="auto"
       mode="F"
       radius="20"
       chamfer_steps="1"
       flexible="false"
       use_knot_distance="true"
       apply_no_radius="true"
       apply_with_radius="true"
       only_selected="false"
       hide_knots="false" />
    <inkscape:path-effect
       effect="mirror_symmetry"
       start_point="195.12783,72.359174"
       end_point="195.12783,497.24204"
       center_point="195.12783,284.80061"
       id="path-effect4368"
       is_visible="true"
       lpeversion="1.2"
       lpesatellites=""
       mode="vertical"
       discard_orig_path="false"
       fuse_paths="false"
       oposite_fuse="false"
       split_items="false"
       split_open="false"
       link_styles="false" />
    <inkscape:path-effect
       effect="fillet_chamfer"
       id="path-effect4364"
       is_visible="true"
       lpeversion="1"
       nodesatellites_param="F,0,0,1,0,20,0,1 @ F,0,0,1,0,20,0,1 @ F,0,0,1,0,20,0,1 @ F,0,0,1,0,20,0,1"
       unit="px"
       method="auto"
       mode="F"
       radius="20"
       chamfer_steps="1"
       flexible="false"
       use_knot_distance="true"
       apply_no_radius="true"
       apply_with_radius="true"
       only_selected="false"
       hide_knots="false" />
    <inkscape:path-effect
       effect="mirror_symmetry"
       start_point="397.37295,-34.654214"
       end_point="397.37295,605.42752"
       center_point="397.37295,285.38666"
       id="path-effect2828"
       is_visible="true"
       lpeversion="1.2"
       lpesatellites=""
       mode="vertical"
       discard_orig_path="false"
       fuse_paths="false"
       oposite_fuse="false"
       split_items="false"
       split_open="false"
       link_styles="false" />
    <inkscape:path-effect
       effect="mirror_symmetry"
       start_point="261.75178,48.429776"
       end_point="261.75178,543.1955"
       center_point="269.4825,276.00268"
       id="path-effect522"
       is_visible="false"
       lpeversion="1.2"
       lpesatellites=""
       mode="vertical"
       discard_orig_path="false"
       fuse_paths="true"
       oposite_fuse="false"
       split_items="false"
       split_open="false"
       link_styles="false" />
    <inkscape:path-effect
       effect="bend_path"
       id="path-effect520"
       is_visible="true"
       lpeversion="1"
       bendpath="m 104.36711,312.78844 c -0.2357,-86.5095 16.84329,-123.68255 44.033,-150.87226 35.22823,-35.22823 74.80663,-48.35823 113.67235,-48.35823"
       prop_scale="0.15"
       scale_y_rel="false"
       vertical="false"
       hide_knot="false"
       bendpath-nodetypes="csc" />
    <inkscape:path-effect
       effect="bspline"
       id="path-effect517"
       is_visible="true"
       lpeversion="1"
       weight="33.333333"
       steps="2"
       helper_size="0"
       apply_no_weight="true"
       apply_with_weight="true"
       only_selected="false" />
    <inkscape:path-effect
       effect="bend_path"
       id="path-effect500"
       is_visible="true"
       lpeversion="1"
       bendpath="M 102.53048,331.6564 V 97.580736 H 256"
       prop_scale="0.35"
       scale_y_rel="false"
       vertical="false"
       hide_knot="false" />
    <inkscape:path-effect
       effect="bspline"
       id="path-effect430"
       is_visible="true"
       lpeversion="1"
       weight="33.333333"
       steps="2"
       helper_size="0"
       apply_no_weight="true"
       apply_with_weight="true"
       only_selected="false" />
    <inkscape:path-effect
       effect="bspline"
       id="path-effect424"
       is_visible="true"
       lpeversion="1"
       weight="33.333333"
       steps="2"
       helper_size="0"
       apply_no_weight="true"
       apply_with_weight="true"
       only_selected="false" />
    <inkscape:path-effect
       effect="mirror_symmetry"
       start_point="217.65154,71.772519"
       end_point="217.65154,543.86459"
       center_point="217.65154,307.81856"
       id="path-effect317"
       is_visible="true"
       lpeversion="1.2"
       lpesatellites=""
       mode="vertical"
       discard_orig_path="false"
       fuse_paths="false"
       oposite_fuse="false"
       split_items="false"
       split_open="false"
       link_styles="false" />
    <inkscape:path-effect
       effect="mirror_symmetry"
       start_point="146.3711,294.1564"
       end_point="146.3711,451.13411"
       center_point="146.3711,372.64526"
       id="path-effect313"
       is_visible="true"
       lpeversion="1.2"
       lpesatellites=""
       mode="free"
       discard_orig_path="false"
       fuse_paths="false"
       oposite_fuse="false"
       split_items="false"
       split_open="false"
       link_styles="false" />
    <inkscape:path-effect
       effect="fillet_chamfer"
       id="path-effect151"
       is_visible="true"
       lpeversion="1"
       nodesatellites_param="F,0,0,1,0,20,0,1 @ F,0,0,1,0,20,0,1 @ F,0,0,1,0,20,0,1 @ F,0,0,1,0,20,0,1"
       unit="px"
       method="auto"
       mode="F"
       radius="20"
       chamfer_steps="1"
       flexible="false"
       use_knot_distance="true"
       apply_no_radius="true"
       apply_with_radius="true"
       only_selected="false"
       hide_knots="false" />
    <inkscape:path-effect
       effect="fillet_chamfer"
       id="path-effect151-7"
       is_visible="true"
       lpeversion="1"
       nodesatellites_param="F,0,0,1,0,30,0,1 @ F,0,0,1,0,30,0,1 @ F,0,0,1,0,30,0,1 @ F,0,0,1,0,30,0,1"
       unit="px"
       method="auto"
       mode="F"
       radius="30"
       chamfer_steps="1"
       flexible="false"
       use_knot_distance="true"
       apply_no_radius="true"
       apply_with_radius="true"
       only_selected="false"
       hide_knots="false" />
    <inkscape:path-effect
       effect="mirror_symmetry"
       start_point="146.3711,294.1564"
       end_point="146.3711,451.13411"
       center_point="146.3711,372.64526"
       id="path-effect317-5"
       is_visible="false"
       lpeversion="1.2"
       lpesatellites=""
       mode="vertical"
       discard_orig_path="false"
       fuse_paths="false"
       oposite_fuse="false"
       split_items="false"
       split_open="false"
       link_styles="false" />
    <inkscape:path-effect
       effect="fillet_chamfer"
       id="path-effect151-5"
       is_visible="true"
       lpeversion="1"
       nodesatellites_param="F,0,0,1,0,20,0,1 @ F,0,0,1,0,20,0,1 @ F,0,0,1,0,20,0,1 @ F,0,0,1,0,20,0,1"
       unit="px"
       method="auto"
       mode="F"
       radius="20"
       chamfer_steps="1"
       flexible="false"
       use_knot_distance="true"
       apply_no_radius="true"
       apply_with_radius="true"
       only_selected="false"
       hide_knots="false" />
    <inkscape:path-effect
       effect="mirror_symmetry"
       start_point="146.3711,294.1564"
       end_point="146.3711,451.13411"
       center_point="146.3711,372.64526"
       id="path-effect317-6"
       is_visible="false"
       lpeversion="1.2"
       lpesatellites=""
       mode="vertical"
       discard_orig_path="false"
       fuse_paths="false"
       oposite_fuse="false"
       split_items="false"
       split_open="false"
       link_styles="false" />
    <inkscape:path-effect
       effect="fillet_chamfer"
       id="path-effect151-9"
       is_visible="true"
       lpeversion="1"
       nodesatellites_param="F,0,0,1,0,20,0,1 @ F,0,0,1,0,20,0,1 @ F,0,0,1,0,20,0,1 @ F,0,0,1,0,20,0,1"
       unit="px"
       method="auto"
       mode="F"
       radius="20"
       chamfer_steps="1"
       flexible="false"
       use_knot_distance="true"
       apply_no_radius="true"
       apply_with_radius="true"
       only_selected="false"
       hide_knots="false" />
    <inkscape:path-effect
       effect="mirror_symmetry"
       start_point="146.3711,294.1564"
       end_point="146.3711,451.13411"
       center_point="146.3711,372.64526"
       id="path-effect317-1"
       is_visible="false"
       lpeversion="1.2"
       lpesatellites=""
       mode="vertical"
       discard_orig_path="false"
       fuse_paths="false"
       oposite_fuse="false"
       split_items="false"
       split_open="false"
       link_styles="false" />
    <filter
       id="mask-powermask-path-effect497_inverse"
       inkscape:label="filtermask-powermask-path-effect497"
       style="color-interpolation-filters:sRGB"
       height="100"
       width="100"
       x="-50"
       y="-50">
      <feColorMatrix
         id="mask-powermask-path-effect497_primitive1"
         values="1"
         type="saturate"
         result="fbSourceGraphic" />
      <feColorMatrix
         id="mask-powermask-path-effect497_primitive2"
         values="-1 0 0 0 1 0 -1 0 0 1 0 0 -1 0 1 0 0 0 1 0 "
         in="fbSourceGraphic" />
    </filter>
  </defs>
  <g
     inkscape:label="Layer 1"
     inkscape:groupmode="layer"
     id="layer1"
     style="display:inline"
     transform="translate(-0.20153363,4.1059205)">
    <g
       id="g3891"
       inkscape:label="Headphone"
       class="UnoptimicedTransforms"
       transform="matrix(1.017643,0,0,1.017643,-8.8854026,-33.685215)"
       style="display:inline">
      <g
         id="g983"
         inkscape:label="Headpiece"
         class="UnoptimicedTransforms"
         style="display:inline">
        <path
           id="rect458-6"
           style="display:inline;fill:#4b4b4b;fill-opacity:1;stroke:#4b4b4b;stroke-width:0.48317;stroke-dasharray:none;stroke-opacity:1"
           class="UnoptimicedTransforms"
           inkscape:label="Headpiece_2"
           d="M 252.10988 128.06293 C 250.57552 128.08083 248.8761 128.12276 247.02625 128.19925 C 245.17642 128.27574 243.17565 128.38736 241.03756 128.54421 C 238.89947 128.70106 236.62449 128.9039 234.22539 129.16274 C 231.8263 129.42158 229.30422 129.73631 226.67136 130.11882 C 224.0385 130.50132 221.29461 130.95137 218.45522 131.47921 C 215.61584 132.00705 212.68095 132.61214 209.66228 133.30698 C 206.64361 134.00182 203.54115 134.78537 200.37044 135.66889 C 197.19973 136.5524 193.95958 137.53691 190.66407 138.63078 C 189.01632 139.17771 187.35538 139.75203 185.68153 140.35561 C 184.00768 140.9592 182.32134 141.59184 180.6248 142.25478 C 178.92826 142.91772 177.22083 143.6107 175.50501 144.33571 C 173.78918 145.06072 172.06499 145.81789 170.33329 146.60767 C 168.6016 147.39746 166.86309 148.21988 165.11892 149.07715 C 163.37474 149.93443 161.62532 150.82595 159.87209 151.75342 C 158.11884 152.68089 156.36097 153.64447 154.60207 154.64484 C 152.84316 155.64521 151.08302 156.68191 149.32185 157.75788 C 148.44128 158.29588 147.57372 158.85597 146.71884 159.43542 C 145.86395 160.01488 145.02235 160.61418 144.19279 161.23352 C 143.36322 161.85285 142.54555 162.49175 141.74093 163.14938 C 140.93631 163.80701 140.14332 164.48311 139.36326 165.17745 C 137.80314 166.56614 136.29276 168.02748 134.82862 169.55352 C 133.36448 171.07955 131.94709 172.67113 130.57588 174.32185 C 129.20468 175.97258 127.87985 177.6826 126.59856 179.44535 C 125.31726 181.2081 124.07903 183.02388 122.88461 184.88599 C 121.69019 186.7481 120.53903 188.65695 119.42845 190.60576 C 118.31788 192.55456 117.24873 194.54287 116.21896 196.56571 C 115.1892 198.58854 114.19885 200.64456 113.24687 202.72875 C 112.29488 204.81294 111.38107 206.92487 110.50383 209.05777 C 109.62659 211.19066 108.78609 213.34492 107.98056 215.51384 C 107.17504 217.68277 106.40371 219.86758 105.66687 222.05986 C 104.93002 224.25216 104.22746 226.45204 103.55627 228.65503 C 102.88508 230.85803 102.2462 233.06308 101.63763 235.26411 C 101.02905 237.46515 100.45066 239.66267 99.901665 241.84908 C 99.352674 244.03549 98.83248 246.21094 98.340041 248.37007 C 97.847604 250.52918 97.3824 252.67081 96.943482 254.78997 C 96.504565 256.90914 96.092073 259.00609 95.703642 261.07263 C 94.926782 265.20572 94.248274 269.22104 93.655171 273.06764 C 93.062067 276.91424 92.554044 280.59213 92.12044 284.05094 C 91.686834 287.50973 91.327339 290.74866 91.028973 293.71835 C 90.730607 296.68804 90.493969 299.38833 90.306583 301.76757 C 90.119196 304.14681 89.980676 306.20511 89.880011 307.89259 C 89.678716 311.26695 89.627795 313.1573 89.627777 313.15797 L 119.10945 313.06709 C 119.16495 280.54947 120.54764 248.52611 130.12056 219.66457 C 133.2685 210.04538 137.31766 200.87013 142.51247 192.61807 C 147.03776 185.35658 152.59649 178.58819 158.82513 172.34107 C 173.50913 157.72559 190.62118 145.6597 209.36183 138.20977 C 225.80384 131.57983 243.7573 128.35993 261.74298 128.30218 C 261.73698 128.30166 260.86953 128.22512 259.23177 128.15659 C 257.58845 128.08779 255.17858 128.02714 252.10988 128.06293 z M 271.4447 128.06293 C 268.376 128.02714 265.96613 128.08779 264.32281 128.15659 C 262.68505 128.22512 261.8176 128.30166 261.8116 128.30218 C 268.43298 128.32344 275.04896 128.7801 281.58784 129.67092 L 281.58784 128.69073 A 14.243787 14.243787 0 0 1 281.62679 128.49321 C 279.84155 128.37084 278.10319 128.26437 276.52833 128.19925 C 274.67848 128.12276 272.97906 128.08083 271.4447 128.06293 z "
           transform="matrix(2.0696664,0,0,2.0696664,-29.738874,-100.23348)" />
        <path
           id="path978"
           style="display:inline;fill:#a0a0a0;fill-opacity:1;stroke:#a0a0a0;stroke-width:0.48317;stroke-dasharray:none;stroke-opacity:1"
           class="UnoptimicedTransforms"
           inkscape:label="Headpiece_1"
           d="M 261.7198 98.814017 C 240.20559 98.837507 218.59892 102.76487 198.38224 110.84334 C 175.44665 120.115 155.04415 134.35338 137.97505 151.49099 C 130.33789 159.10968 123.39819 167.61325 117.51908 176.97309 C 110.88569 187.61688 105.81929 198.96887 102.07718 210.55077 C 91.230209 244.52249 89.367743 279.6146 89.625922 313.15797 L 89.627777 313.15797 C 89.627795 313.1573 89.678712 311.26695 89.880011 307.89259 C 89.980676 306.20511 90.119196 304.14681 90.306583 301.76757 C 90.493969 299.38833 90.730607 296.68804 91.028973 293.71835 C 91.327339 290.74866 91.686834 287.50973 92.12044 284.05094 C 92.554044 280.59213 93.062067 276.91424 93.655171 273.06764 C 94.248274 269.22104 94.926782 265.20572 95.703642 261.07263 C 96.092073 259.00609 96.504565 256.90914 96.943482 254.78997 C 97.3824 252.67081 97.847604 250.52918 98.340041 248.37007 C 98.83248 246.21094 99.352674 244.03549 99.901665 241.84908 C 100.45066 239.66267 101.02905 237.46515 101.63763 235.26411 C 102.2462 233.06308 102.88508 230.85803 103.55627 228.65503 C 104.22746 226.45204 104.93002 224.25216 105.66687 222.05986 C 106.40371 219.86758 107.17504 217.68277 107.98056 215.51384 C 108.78609 213.34492 109.62659 211.19066 110.50383 209.05777 C 111.38107 206.92487 112.29488 204.81294 113.24687 202.72875 C 114.19885 200.64456 115.1892 198.58854 116.21896 196.56571 C 117.24873 194.54287 118.31788 192.55363 119.42845 190.60483 C 120.53903 188.65603 121.69019 186.7481 122.88461 184.88599 C 124.07903 183.02388 125.31726 181.2081 126.59856 179.44535 C 127.87985 177.6826 129.20468 175.97258 130.57588 174.32185 C 131.94709 172.67113 133.36448 171.07955 134.82862 169.55352 C 136.29276 168.02748 137.80314 166.56614 139.36326 165.17745 C 140.14332 164.48311 140.93631 163.80701 141.74093 163.14938 C 142.54555 162.49175 143.36322 161.85285 144.19279 161.23352 C 145.02235 160.61418 145.86395 160.01488 146.71884 159.43542 C 147.57372 158.85597 148.44128 158.29588 149.32185 157.75788 C 151.08302 156.68191 152.84316 155.64521 154.60207 154.64484 C 156.36097 153.64447 158.11884 152.68089 159.87209 151.75342 C 161.62532 150.82595 163.37474 149.93443 165.11892 149.07715 C 166.86309 148.21988 168.6016 147.39746 170.33329 146.60767 C 172.06499 145.81789 173.78918 145.06072 175.50501 144.33571 C 177.22083 143.6107 178.92826 142.91772 180.6248 142.25478 C 182.32134 141.59184 184.00768 140.9592 185.68153 140.35561 C 187.35538 139.75203 189.01632 139.17771 190.66407 138.63078 C 193.95958 137.53691 197.19973 136.5524 200.37044 135.66889 C 203.54115 134.78537 206.64361 134.00182 209.66228 133.30698 C 212.68095 132.61214 215.61584 132.00705 218.45522 131.47921 C 221.29461 130.95137 224.0385 130.50132 226.67136 130.11882 C 229.30422 129.73631 231.8263 129.42158 234.22539 129.16274 C 236.62449 128.9039 238.89947 128.70106 241.03756 128.54421 C 243.17565 128.38736 245.17642 128.27577 247.02625 128.19925 C 248.8761 128.12275 250.57552 128.08081 252.10988 128.06293 C 255.17858 128.02713 257.58845 128.08779 259.23177 128.15659 C 260.86953 128.22519 261.73708 128.30166 261.74298 128.30218 C 261.75428 128.30215 261.76589 128.30222 261.77729 128.30218 L 261.7198 98.814017 z M 261.77729 128.30218 C 261.78869 128.30222 261.8003 128.30215 261.8116 128.30218 C 261.8175 128.30166 262.68505 128.22519 264.32281 128.15659 C 265.96613 128.08779 268.376 128.02713 271.4447 128.06293 C 272.97906 128.08081 274.67848 128.12275 276.52833 128.19925 C 278.10319 128.2644 279.84155 128.37085 281.62679 128.49321 A 14.243787 14.243787 0 0 1 295.83162 114.44694 L 333.42743 114.44694 C 330.71362 113.1757 327.96259 111.97129 325.17234 110.84334 C 304.95566 102.76487 283.34899 98.837507 261.83479 98.814017 L 261.77729 128.30218 z "
           transform="matrix(2.0696664,0,0,2.0696664,-29.738874,-100.23348)" />
      </g>
      <g
         id="g6031"
         inkscape:label="Earpad"
         class="UnoptimicedTransforms"
         style="display:inline;stroke:#2b2b2b;stroke-width:1;stroke-dasharray:none;stroke-opacity:1"
         transform="matrix(2.4241725,0,0,2.4241725,-66.873237,-124.90426)">
        <path
           id="rect149-3"
           style="display:inline;fill:#54cfff;fill-opacity:1;stroke:#54cfff;stroke-width:0.567717;stroke-dasharray:none;stroke-opacity:1"
           class="UnoptimicedTransforms"
           inkscape:label="Earpad_6"
           d="m 82.192428,323.48418 v -21.43282 h -7.49661 c -16.568719,2.3e-4 -29.999514,13.43253 -29.999011,30.00125 v 22.22511 c 0.770461,-0.3069 1.541249,-0.61406 2.302782,-0.92825 1.030782,-0.42528 2.053156,-0.85779 3.06451,-1.29896 1.011353,-0.44116 2.012009,-0.89086 3.000403,-1.3508 0.988394,-0.45993 1.964341,-0.92985 2.926243,-1.41144 0.961901,-0.4816 1.908889,-0.97475 2.840767,-1.48089 0.931878,-0.50614 1.848173,-1.02557 2.746495,-1.55915 0.898322,-0.53357 1.779674,-1.08132 2.640908,-1.64521 0.861234,-0.5639 1.702139,-1.14397 2.522753,-1.74108 0.820614,-0.5971 1.620592,-1.21155 2.397055,-1.84475 0.776462,-0.63321 1.530009,-1.28505 2.258787,-1.95724 0.36439,-0.3361 0.722909,-0.67773 1.074715,-1.02411 0.351807,-0.34638 0.696968,-0.69739 1.035749,-1.05442 0.338782,-0.35704 0.670211,-0.71964 0.995526,-1.08769 0.325315,-0.36804 0.643895,-0.74152 0.955303,-1.12094 0.311407,-0.37941 0.616321,-0.76438 0.913822,-1.15517 0.2975,-0.39078 0.588307,-0.78761 0.872342,-1.18941 0.56807,-0.80359 1.109671,-1.6292 1.626528,-2.47467 0.516857,-0.84547 1.009029,-1.71052 1.478205,-2.59498 0.469176,-0.88446 0.91491,-1.78789 1.339937,-2.70845 0.176215,-0.38166 0.333735,-0.77841 0.502791,-1.16593 z"
           transform="matrix(0.64097225,0,0,0.82370033,13.77977,55.078843)" />
        <path
           id="path4510"
           style="display:inline;fill:#00a5e5;fill-opacity:1;stroke:#00a5e5;stroke-width:0.567717;stroke-dasharray:none;stroke-opacity:1"
           class="UnoptimicedTransforms"
           inkscape:label="Earpad_5"
           d="m 82.192428,323.48418 c -0.169056,0.38752 -0.326576,0.78427 -0.502791,1.16593 -0.425027,0.92056 -0.870761,1.82399 -1.339937,2.70845 -0.469176,0.88446 -0.961348,1.74951 -1.478205,2.59498 -0.516857,0.84547 -1.058458,1.67108 -1.626528,2.47467 -0.284035,0.4018 -0.574842,0.79863 -0.872342,1.18941 -0.297501,0.39079 -0.602415,0.77576 -0.913822,1.15517 -0.311408,0.37942 -0.629988,0.7529 -0.955303,1.12094 -0.325315,0.36805 -0.656744,0.73065 -0.995526,1.08769 -0.338781,0.35703 -0.683942,0.70804 -1.035749,1.05442 -0.351806,0.34638 -0.710325,0.68801 -1.074715,1.02411 -0.728778,0.67219 -1.482325,1.32403 -2.258787,1.95724 -0.776463,0.6332 -1.576441,1.24765 -2.397055,1.84475 -0.820614,0.59711 -1.661519,1.17718 -2.522753,1.74108 -0.861234,0.56389 -1.742586,1.11164 -2.640908,1.64521 -0.898322,0.53358 -1.814617,1.05301 -2.746495,1.55915 -0.931878,0.50614 -1.878866,0.99929 -2.840767,1.48089 -0.961902,0.48159 -1.937849,0.95151 -2.926243,1.41144 -0.988394,0.45994 -1.98905,0.90964 -3.000403,1.3508 -1.011354,0.44117 -2.033728,0.87368 -3.06451,1.29896 -0.761533,0.31419 -1.532321,0.62135 -2.302782,0.92825 v 59.85578 c -4.97e-4,16.56871 13.430295,30.00004 29.999011,30.00027 h 7.49661 z"
           transform="matrix(0.64097225,0,0,0.82370033,13.77977,55.078843)" />
        <path
           id="path4411"
           style="display:inline;fill:#2557ce;fill-opacity:1;stroke:#2557ce;stroke-width:0.811439;stroke-dasharray:none;stroke-opacity:1"
           class="UnoptimicedTransforms"
           d="m 63.075969,302.234 a 20,20 0 0 0 -18.379243,19.81752 v 100.90935 a 20,20 0 0 0 1.600822,7.56752 z"
           transform="matrix(1.2603382,0,0,1.205038,10.1299,-86.488613)"
           inkscape:label="Earpad_4" />
        <path
           id="path5639"
           style="display:inline;fill:#1e43a2;fill-opacity:1;stroke:#1e43a2;stroke-width:0.811439;stroke-dasharray:none;stroke-opacity:1"
           class="UnoptimicedTransforms"
           d="M 63.075969,302.234 46.297548,430.52839 a 20,20 0 0 0 16.761374,12.24676 z"
           transform="matrix(1.2603382,0,0,1.205038,10.1299,-86.488613)"
           inkscape:label="Earpad_3" />
        <path
           id="path4908"
           style="display:inline;fill:#878787;fill-opacity:1;stroke:#878787;stroke-width:0.811439;stroke-dasharray:none;stroke-opacity:1"
           class="UnoptimicedTransforms"
           d="M 102.03346,433.19784 63.075969,302.234 63.058922,442.77515 a 20,20 0 0 0 1.636466,0.18477 h 20.241963 a 20,20 0 0 0 17.096109,-9.76208 z"
           transform="matrix(1.2603382,0,0,1.205038,10.1299,-86.488613)"
           inkscape:label="Earpad_2" />
        <path
           id="path5644"
           style="display:inline;fill:#707070;fill-opacity:1;stroke:#707070;stroke-width:0.811439;stroke-dasharray:none;stroke-opacity:1"
           class="UnoptimicedTransforms"
           d="m 64.695388,302.05247 a 20,20 0 0 0 -1.619419,0.18153 l 38.957491,130.96384 a 20,20 0 0 0 2.9041,-10.23697 V 322.05152 A 20,20 0 0 0 84.937351,302.05247 Z"
           transform="matrix(1.2603382,0,0,1.205038,10.1299,-86.488613)"
           inkscape:label="Earpad_1" />
      </g>
    </g>
    <g
       id="g1871"
       inkscape:label="Battery">
      <path
         id="path535"
         d="m 608.98943,131.79873 h 344.68806 a 26.985427,29.011204 0 0 1 26.98543,29.01119 v 752.41854 a 26.985427,29.011204 0 0 1 -26.98543,29.01119 H 608.98943 A 26.985427,29.011204 0 0 1 582.00402,913.22846 V 160.80992 a 26.985427,29.011204 0 0 1 26.98541,-29.01119 z"
         style="display:inline;fill:none;stroke:#ff0000;stroke-width:28.5328;stroke-miterlimit:3.8;stroke-dasharray:none;stroke-opacity:1"
         inkscape:label="Battery_body" />
      <path
         style="display:inline;fill:none;stroke:#ff0000;stroke-width:20;stroke-miterlimit:3.8;stroke-dasharray:none;stroke-opacity:1"
         id="rect1925"
         width="130.77322"
         height="67.252121"
         x="715.94684"
         y="68.757523"
         inkscape:path-effect="#path-effect1927"
         d="m 725.94684,68.757523 h 110.77322 a 10,10 45 0 1 10,10 v 47.252117 a 10,10 135 0 1 -10,10 H 725.94684 a 10,10 45 0 1 -10,-10 V 78.757523 a 10,10 135 0 1 10,-10 z"
         sodipodi:type="rect"
         inkscape:label="Battery_nub" />
    </g>
  </g>
</svg>
